<svg id="Layer_1" data-name="Layer 1" xmlns="http://www.w3.org/2000/svg" viewBox="0 0 717.56 282.43"><defs><style>.cls-1,.cls-2{fill:#2e3191;}.cls-1{fill-rule:evenodd;}.cls-3{fill:#2e3192;}.cls-4{fill:none;stroke:#2e3191;stroke-miterlimit:10;stroke-width:2px;}</style></defs><title>logo svg </title><polygon class="cls-1" points="42.6 64.73 42.6 209.64 0.48 209.64 0.48 87.46 42.6 64.73"/><polygon class="cls-1" points="0.48 22.26 42.6 22.26 42.6 23.85 0.48 48.08 0.48 22.26"/><polygon class="cls-1" points="358.1 117.9 407.77 117.9 473.05 209.64 423.38 209.64 358.1 117.9"/><path class="cls-1" d="M6764.94,6950.27h130.73a52.46,52.46,0,0,1,52.3,52.3v5.81a52.45,52.45,0,0,1-52.3,52.29h-88.61v77h-42.12V6950.27Zm42.66,29.59v51.22h76.08l1.55,0,1.14-.09,1.12-.14,1.1-.2,1.09-.25,1-.3,1-.35,1-.41,1-.46,1-.49.94-.55.94-.6.9-.64.86-.68.84-.72.81-.78.77-.81.72-.83.69-.87.64-.9.6-.94.54-.94.5-1,.46-1,.41-1,.35-1,.3-1.05.25-1.09.2-1.1.14-1.12.09-1.13,0-1.55v-5.07l0-1.55-.09-1.14-.14-1.12-.2-1.1L6906,6997l-.3-1.06-.35-1-.41-1-.46-1-.5-1-.54-.95-.6-.93-.64-.9-.69-.88-.73-.83-.76-.81-.8-.76-.84-.72-.87-.69-.9-.64-.93-.6-1-.55-1-.5-1-.46-1-.4-1.06-.35-1.06-.31-1.08-.25-1.09-.19-1.12-.15-1.15-.09-1.55,0Z" transform="translate(-6678.03 -6928.02)"/><path class="cls-1" d="M6959.36,6950.27h130.73a52.46,52.46,0,0,1,52.3,52.3v5.81a52.45,52.45,0,0,1-52.3,52.29h-88.61v77h-42.12V6950.27Zm42.66,29.59v51.22h76.08l1.55,0,1.14-.09,1.12-.14,1.1-.2,1.09-.25,1-.3,1-.35,1-.41,1-.46,1-.49.94-.55.94-.6.9-.64.86-.68.83-.72.82-.78.77-.81.72-.83.69-.87.64-.9.6-.94.54-.94.5-1,.46-1,.41-1,.35-1,.3-1.05.25-1.09.2-1.1.14-1.12.09-1.13,0-1.55v-5.07l0-1.55-.09-1.14-.14-1.12-.2-1.1-.25-1.08-.3-1.06-.35-1-.41-1-.46-1-.5-1-.55-.95-.59-.93-.64-.9-.69-.88-.73-.83-.76-.81-.8-.76-.84-.72-.87-.69-.9-.64-.93-.6-1-.55-1-.5-1-.46-1-.4-1.06-.35-1.06-.31-1.08-.25-1.09-.19-1.12-.15-1.15-.09-1.55,0Z" transform="translate(-6678.03 -6928.02)"/><path class="cls-1" d="M7266.53,6977.76a66.71,66.71,0,1,1-66.71,66.71,66.72,66.72,0,0,1,66.71-66.71Zm0-31.21c-60.15,0-108.93,43.85-108.93,97.92s48.78,97.92,108.93,97.92,108.93-43.85,108.93-97.92S7326.68,6946.55,7266.53,6946.55Z" transform="translate(-6678.03 -6928.02)"/><path class="cls-2" d="M6682.1,7169.68v31.51H6678v-31.51Z" transform="translate(-6678.03 -6928.02)"/><path class="cls-2" d="M6689.53,7184.69c0-2.34,0-4.25-.18-6.13H6693l.24,3.74h.09a8.32,8.32,0,0,1,7.48-4.25c3.13,0,8,1.87,8,9.63v13.51h-4.11v-13c0-3.65-1.36-6.69-5.24-6.69a6,6,0,0,0-5.79,6.13v13.6h-4.12Z" transform="translate(-6678.03 -6928.02)"/><path class="cls-2" d="M6715.48,7184.69c0-2.34,0-4.25-.19-6.13h3.65l.24,3.74h.09a8.32,8.32,0,0,1,7.48-4.25c3.13,0,8,1.87,8,9.63v13.51h-4.11v-13c0-3.65-1.36-6.69-5.24-6.69a6,6,0,0,0-5.79,6.13v13.6h-4.12Z" transform="translate(-6678.03 -6928.02)"/><path class="cls-2" d="M6761.91,7189.69c0,8.37-5.8,12-11.27,12-6.12,0-10.85-4.49-10.85-11.64,0-7.58,5-12,11.23-12C6757.51,7178.05,6761.91,7182.77,6761.91,7189.69Zm-17.95.24c0,4.95,2.85,8.69,6.87,8.69s6.87-3.69,6.87-8.79c0-3.83-1.92-8.69-6.78-8.69S6744,7185.62,6744,7189.93Z" transform="translate(-6678.03 -6928.02)"/><path class="cls-2" d="M6768.36,7178.56l4.44,12.72a58.73,58.73,0,0,1,1.83,5.8h.14c.51-1.87,1.17-3.74,1.91-5.8l4.4-12.72h4.3l-8.88,22.63h-3.93l-8.6-22.63Z" transform="translate(-6678.03 -6928.02)"/><path class="cls-2" d="M6801.6,7201.19l-.32-2.85h-.14a8.44,8.44,0,0,1-6.92,3.37c-4.58,0-6.92-3.23-6.92-6.5,0-5.47,4.86-8.46,13.6-8.42v-.46c0-1.87-.51-5.24-5.14-5.24a11.27,11.27,0,0,0-5.89,1.68l-.94-2.71a14.12,14.12,0,0,1,7.44-2c6.92,0,8.6,4.72,8.6,9.26v8.46a31.91,31.91,0,0,0,.37,5.42Zm-.6-11.54c-4.49-.1-9.59.7-9.59,5.09a3.64,3.64,0,0,0,3.88,3.93,5.62,5.62,0,0,0,5.47-3.79,4.32,4.32,0,0,0,.24-1.31Z" transform="translate(-6678.03 -6928.02)"/><path class="cls-2" d="M6816.38,7172.07v6.49h5.89v3.14h-5.89v12.2c0,2.8.79,4.39,3.09,4.39a9.14,9.14,0,0,0,2.38-.28l.19,3.09a10.05,10.05,0,0,1-3.65.56,5.7,5.7,0,0,1-4.44-1.73c-1.17-1.21-1.59-3.23-1.59-5.89V7181.7h-3.51v-3.14h3.51v-5.42Z" transform="translate(-6678.03 -6928.02)"/><path class="cls-2" d="M6831.48,7172.21a2.55,2.55,0,0,1-5.09,0,2.51,2.51,0,0,1,2.57-2.58A2.45,2.45,0,0,1,6831.48,7172.21Zm-4.58,29v-22.63H6831v22.63Z" transform="translate(-6678.03 -6928.02)"/><path class="cls-2" d="M6839.43,7178.56l4.44,12.72a56,56,0,0,1,1.82,5.8h.14c.52-1.87,1.17-3.74,1.92-5.8l4.4-12.72h4.3l-8.89,22.63h-3.92l-8.6-22.63Z" transform="translate(-6678.03 -6928.02)"/><path class="cls-2" d="M6862.15,7190.63c.1,5.56,3.65,7.85,7.76,7.85a14.79,14.79,0,0,0,6.27-1.17l.7,2.95a18.43,18.43,0,0,1-7.53,1.4c-7,0-11.12-4.58-11.12-11.41s4-12.2,10.61-12.2c7.39,0,9.35,6.5,9.35,10.66a15,15,0,0,1-.14,1.92Zm12.06-2.95c.05-2.62-1.07-6.68-5.7-6.68-4.16,0-6,3.83-6.31,6.68Z" transform="translate(-6678.03 -6928.02)"/><path class="cls-2" d="M6893.2,7186c0-2.9-.1-5.23-.19-7.39h3.69l.19,3.88h.09a8.92,8.92,0,0,1,8.05-4.39c5.47,0,9.58,4.63,9.58,11.5,0,8.14-5,12.16-10.29,12.16a7.91,7.91,0,0,1-7-3.56h-.09v12.3h-4.07Zm4.07,6a9.73,9.73,0,0,0,.18,1.69,6.35,6.35,0,0,0,6.17,4.81c4.35,0,6.88-3.55,6.88-8.74,0-4.54-2.39-8.42-6.74-8.42a6.56,6.56,0,0,0-6.21,5.1,6.64,6.64,0,0,0-.28,1.68Z" transform="translate(-6678.03 -6928.02)"/><path class="cls-2" d="M6919.8,7185.62c0-2.66-.05-4.95-.19-7.06h3.6l.14,4.45h.19a6.8,6.8,0,0,1,6.27-5,4.69,4.69,0,0,1,1.17.14v3.88a6.53,6.53,0,0,0-1.41-.14c-2.9,0-4.95,2.2-5.51,5.28a11,11,0,0,0-.19,1.92v12.06h-4.07Z" transform="translate(-6678.03 -6928.02)"/><path class="cls-2" d="M6955.1,7189.69c0,8.37-5.8,12-11.27,12-6.12,0-10.84-4.49-10.84-11.64,0-7.58,4.95-12,11.22-12C6950.71,7178.05,6955.1,7182.77,6955.1,7189.69Zm-18,.24c0,4.95,2.85,8.69,6.87,8.69s6.87-3.69,6.87-8.79c0-3.83-1.91-8.69-6.78-8.69S6937.15,7185.62,6937.15,7189.93Z" transform="translate(-6678.03 -6928.02)"/><path class="cls-2" d="M6979.83,7168v27.35c0,2,.05,4.3.19,5.84h-3.69l-.19-3.92h-.09a8.39,8.39,0,0,1-7.72,4.44c-5.47,0-9.68-4.63-9.68-11.5,0-7.53,4.63-12.16,10.15-12.16,3.46,0,5.8,1.64,6.83,3.46h.09V7168Zm-4.11,19.77a7.34,7.34,0,0,0-.19-1.73,6,6,0,0,0-5.93-4.76c-4.26,0-6.78,3.74-6.78,8.74,0,4.58,2.24,8.37,6.68,8.37a6.19,6.19,0,0,0,6-4.91,7.15,7.15,0,0,0,.19-1.78Z" transform="translate(-6678.03 -6928.02)"/><path class="cls-2" d="M7005.6,7195c0,2.34,0,4.4.18,6.17h-3.64l-.24-3.69h-.09a8.53,8.53,0,0,1-7.48,4.21c-3.55,0-7.81-2-7.81-9.91v-13.24h4.12v12.53c0,4.31,1.3,7.2,5,7.2a6,6,0,0,0,5.43-3.74,6,6,0,0,0,.37-2.1v-13.89h4.12Z" transform="translate(-6678.03 -6928.02)"/><path class="cls-2" d="M7028.55,7200.35a15.15,15.15,0,0,1-6.5,1.31c-6.82,0-11.26-4.63-11.26-11.55s4.77-12,12.15-12a13.67,13.67,0,0,1,5.71,1.17l-.94,3.17a9.54,9.54,0,0,0-4.77-1.07c-5.19,0-8,3.83-8,8.56,0,5.23,3.36,8.46,7.85,8.46a11.75,11.75,0,0,0,5.05-1.12Z" transform="translate(-6678.03 -6928.02)"/><path class="cls-2" d="M7038.93,7172.07v6.49h5.89v3.14h-5.89v12.2c0,2.8.8,4.39,3.09,4.39a9.14,9.14,0,0,0,2.38-.28l.19,3.09a10.05,10.05,0,0,1-3.65.56,5.71,5.71,0,0,1-4.44-1.73c-1.17-1.21-1.59-3.23-1.59-5.89V7181.7h-3.5v-3.14h3.5v-5.42Z" transform="translate(-6678.03 -6928.02)"/><path class="cls-2" d="M7048.89,7197a10.76,10.76,0,0,0,5.42,1.64c3,0,4.4-1.49,4.4-3.36s-1.17-3-4.21-4.17c-4.07-1.44-6-3.69-6-6.4,0-3.65,2.94-6.64,7.81-6.64a11.26,11.26,0,0,1,5.56,1.4l-1,3a8.82,8.82,0,0,0-4.63-1.3c-2.43,0-3.79,1.4-3.79,3.08,0,1.87,1.36,2.71,4.31,3.84,3.92,1.49,5.93,3.46,5.93,6.82,0,4-3.08,6.78-8.46,6.78a13,13,0,0,1-6.36-1.54Z" transform="translate(-6678.03 -6928.02)"/><path class="cls-2" d="M7082.46,7172.21a2.55,2.55,0,0,1-5.1,0,2.52,2.52,0,0,1,2.58-2.58A2.45,2.45,0,0,1,7082.46,7172.21Zm-4.58,29v-22.63H7082v22.63Z" transform="translate(-6678.03 -6928.02)"/><path class="cls-2" d="M7088.82,7184.69c0-2.34,0-4.25-.19-6.13h3.65l.23,3.74h.1a8.32,8.32,0,0,1,7.48-4.25c3.13,0,8,1.87,8,9.63v13.51H7104v-13c0-3.65-1.36-6.69-5.24-6.69a5.86,5.86,0,0,0-5.52,4.21,6.17,6.17,0,0,0-.28,1.92v13.6h-4.11Z" transform="translate(-6678.03 -6928.02)"/><path class="cls-2" d="M7146.84,7200.16a20.12,20.12,0,0,1-8.32,1.5c-8.88,0-15.57-5.61-15.57-15.94,0-9.87,6.69-16.55,16.46-16.55a16.92,16.92,0,0,1,7.48,1.4l-1,3.32a14.81,14.81,0,0,0-6.36-1.31c-7.39,0-12.3,4.72-12.3,13,0,7.71,4.44,12.67,12.11,12.67a16.37,16.37,0,0,0,6.64-1.31Z" transform="translate(-6678.03 -6928.02)"/><path class="cls-2" d="M7171.76,7189.69c0,8.37-5.79,12-11.27,12-6.12,0-10.84-4.49-10.84-11.64,0-7.58,5-12,11.22-12C7167.37,7178.05,7171.76,7182.77,7171.76,7189.69Zm-17.95.24c0,4.95,2.85,8.69,6.87,8.69s6.87-3.69,6.87-8.79c0-3.83-1.91-8.69-6.77-8.69S7153.81,7185.62,7153.81,7189.93Z" transform="translate(-6678.03 -6928.02)"/><path class="cls-2" d="M7177,7184.69c0-2.34,0-4.25-.18-6.13h3.64l.24,3.74h.09a8.32,8.32,0,0,1,7.48-4.25c3.13,0,8,1.87,8,9.63v13.51h-4.12v-13c0-3.65-1.35-6.69-5.24-6.69a6,6,0,0,0-5.79,6.13v13.6H7177Z" transform="translate(-6678.03 -6928.02)"/><path class="cls-2" d="M7202.34,7197a10.76,10.76,0,0,0,5.43,1.64c3,0,4.39-1.49,4.39-3.36s-1.17-3-4.21-4.17c-4.07-1.44-6-3.69-6-6.4,0-3.65,2.94-6.64,7.81-6.64a11.26,11.26,0,0,1,5.56,1.4l-1,3a8.82,8.82,0,0,0-4.63-1.3c-2.43,0-3.78,1.4-3.78,3.08,0,1.87,1.35,2.71,4.3,3.84,3.92,1.49,5.93,3.46,5.93,6.82,0,4-3.08,6.78-8.46,6.78a13,13,0,0,1-6.36-1.54Z" transform="translate(-6678.03 -6928.02)"/><path class="cls-2" d="M7226.37,7172.07v6.49h5.89v3.14h-5.89v12.2c0,2.8.8,4.39,3.09,4.39a9.14,9.14,0,0,0,2.38-.28l.19,3.09a10,10,0,0,1-3.65.56,5.71,5.71,0,0,1-4.44-1.73c-1.17-1.21-1.59-3.23-1.59-5.89V7181.7h-3.5v-3.14h3.5v-5.42Z" transform="translate(-6678.03 -6928.02)"/><path class="cls-2" d="M7236.89,7185.62c0-2.66,0-4.95-.18-7.06h3.6l.14,4.45h.18a6.8,6.8,0,0,1,6.27-5,4.63,4.63,0,0,1,1.17.14v3.88a6.37,6.37,0,0,0-1.4-.14c-2.9,0-5,2.2-5.52,5.28a11,11,0,0,0-.19,1.92v12.06h-4.07Z" transform="translate(-6678.03 -6928.02)"/><path class="cls-2" d="M7271.12,7195c0,2.34,0,4.4.18,6.17h-3.64l-.24-3.69h-.09a8.53,8.53,0,0,1-7.48,4.21c-3.55,0-7.81-2-7.81-9.91v-13.24h4.12v12.53c0,4.31,1.31,7.2,5.05,7.2a5.94,5.94,0,0,0,5.42-3.74,6,6,0,0,0,.37-2.1v-13.89h4.12Z" transform="translate(-6678.03 -6928.02)"/><path class="cls-2" d="M7294.08,7200.35a15.19,15.19,0,0,1-6.5,1.31c-6.83,0-11.27-4.63-11.27-11.55s4.77-12,12.15-12a13.6,13.6,0,0,1,5.71,1.17l-.94,3.17a9.54,9.54,0,0,0-4.77-1.07c-5.18,0-8,3.83-8,8.56,0,5.23,3.37,8.46,7.85,8.46a11.72,11.72,0,0,0,5.05-1.12Z" transform="translate(-6678.03 -6928.02)"/><path class="cls-2" d="M7304.45,7172.07v6.49h5.89v3.14h-5.89v12.2c0,2.8.8,4.39,3.09,4.39a9.14,9.14,0,0,0,2.38-.28l.19,3.09a10,10,0,0,1-3.65.56,5.71,5.71,0,0,1-4.44-1.73c-1.17-1.21-1.59-3.23-1.59-5.89V7181.7h-3.5v-3.14h3.5v-5.42Z" transform="translate(-6678.03 -6928.02)"/><path class="cls-2" d="M7319.56,7172.21a2.55,2.55,0,0,1-5.1,0,2.52,2.52,0,0,1,2.57-2.58A2.45,2.45,0,0,1,7319.56,7172.21Zm-4.59,29v-22.63h4.12v22.63Z" transform="translate(-6678.03 -6928.02)"/><path class="cls-2" d="M7346.39,7189.69c0,8.37-5.79,12-11.26,12-6.13,0-10.85-4.49-10.85-11.64,0-7.58,4.95-12,11.22-12C7342,7178.05,7346.39,7182.77,7346.39,7189.69Zm-18,.24c0,4.95,2.85,8.69,6.87,8.69s6.87-3.69,6.87-8.79c0-3.83-1.91-8.69-6.77-8.69S7328.44,7185.62,7328.44,7189.93Z" transform="translate(-6678.03 -6928.02)"/><path class="cls-2" d="M7351.58,7184.69c0-2.34,0-4.25-.18-6.13H7355l.24,3.74h.09a8.32,8.32,0,0,1,7.48-4.25c3.13,0,8,1.87,8,9.63v13.51h-4.11v-13c0-3.65-1.35-6.69-5.24-6.69a6,6,0,0,0-5.79,6.13v13.6h-4.12Z" transform="translate(-6678.03 -6928.02)"/><path class="cls-3" d="M7373,6936.05a24.82,24.82,0,0,1,4.51-.37c2.51,0,4.13.45,5.26,1.48a4.52,4.52,0,0,1,1.43,3.46,4.78,4.78,0,0,1-3.43,4.64v.08c1.41.48,2.24,1.78,2.68,3.67a28.3,28.3,0,0,0,1.4,5h-2.43a23.21,23.21,0,0,1-1.21-4.34c-.54-2.51-1.51-3.46-3.65-3.54h-2.21V6954H7373Zm2.35,8.29h2.4c2.51,0,4.1-1.38,4.1-3.46,0-2.34-1.7-3.37-4.18-3.4a9.51,9.51,0,0,0-2.32.22Z" transform="translate(-6678.03 -6928.02)"/><circle class="cls-4" cx="700.16" cy="17.39" r="16.39"/></svg>